<?xml version="1.0" encoding="utf-8"?>
<!-- Generator: Adobe Illustrator 24.2.0, SVG Export Plug-In . SVG Version: 6.00 Build 0)  -->
<svg version="1.1" id="图层_1" xmlns="http://www.w3.org/2000/svg" xmlns:xlink="http://www.w3.org/1999/xlink" x="0px" y="0px"
	 viewBox="0 0 512 512" style="enable-background:new 0 0 512 512;" xml:space="preserve">
<g transform="translate(0.000000,512.000000) scale(0.100000,-0.100000)">
	<path d="M3119,4475c-53-14-152-63-218-107c-54-37-184-130-191-138c-3-3-30-25-60-50c-355-290-974-895-1206-1178c-10-13-27-33-38-45
		c-43-50-116-171-122-203c-16-84,71-195,236-305c93-62,677-399,691-399c15,0,10-33-20-120c-44-129-176-463-246-625
		c-7-16-29-77-50-135c-20-58-40-116-46-130c-18-50-46-196-44-240c2-98,47-145,149-156c73-8,122,10,241,89c107,71,190,135,339,262
		c39,33,87,73,106,89s60,51,90,79c30,27,100,91,155,141s208,198,340,329c208,207,275,278,404,425c60,69,151,193,181,245
		c27,49,31,64,26,98c-17,105-99,189-319,327c-54,34-100,62-102,62s-28,14-57,31c-29,18-78,46-108,62c-30,17-68,38-85,48
		c-16,10-50,29-75,42c-25,14-70,39-100,56c-30,18-63,35-72,38c-24,7-23,25,11,124c31,91,146,388,179,460c95,211,219,609,217,700
		C3324,4448,3230,4504,3119,4475z"/>
</g>
<image style="overflow:visible;" width="526" height="526" xlink:href="../../me.png"  transform="matrix(0.9734 0 0 0.9734 0 0)">
</image>
</svg>
